<svg xmlns="http://www.w3.org/2000/svg" xmlns:xlink="http://www.w3.org/1999/xlink" xml:space="preserve" width="250" height="250" viewBox="0 0 66.146 66.146"><defs><radialGradient xlink:href="#a" id="d" cx="88.682" cy="157.199" r="17.206" fx="88.682" fy="157.199" gradientTransform="matrix(1.26983 .70165 -.7764 1.40513 34.683 -258.423)" gradientUnits="userSpaceOnUse"/><radialGradient xlink:href="#b" id="c" cx="88.055" cy="193.299" r="33.924" fx="88.055" fy="193.299" gradientTransform="matrix(1.53825 -.26384 .1033 .60228 -135.167 -37.371)" gradientUnits="userSpaceOnUse"/><linearGradient id="b"><stop offset="0" style="stop-color:#6d28d9;stop-opacity:1"/><stop offset="1" style="stop-color:#4c1d95;stop-opacity:1"/></linearGradient><linearGradient id="a"><stop offset="0" style="stop-color:#6d28d9;stop-opacity:1"/><stop offset=".412" style="stop-color:#5b21b6;stop-opacity:1"/><stop offset="1" style="stop-color:#2e1065;stop-opacity:1"/></linearGradient></defs><path d="M63.26 27.376C47.618 18.34-.48 33.303.004 53.864c1.568 10.197 27.72 15.664 44.78 10.003 14.92-4.95 27.141-22.824 18.476-36.49Z" style="fill:url(#c);stroke:none;stroke-width:.257948"/><path d="M32.66 1.614s-8.371 13.711-9.192 16.328c-1.042 3.32-7.257 26.125-7.741 29.27 0 0 4.717 7.257 17.296 4.717C45.6 49.389 48.867 41.285 49.23 37.294c.363-3.991-1.572-5.443-1.572-5.443s-8.467-7.71-8.98-8.043c0 0 .12-1.663-.334-2.842-.41-1.065-1.33-1.663-1.572-2.63-.242-.968-4.112-16.722-4.112-16.722Z" style="fill:url(#d);stroke:none;stroke-width:.257948"/></svg>